<?xml version="1.0" encoding="UTF-8"?><svg id="a" xmlns="http://www.w3.org/2000/svg" viewBox="0 0 712.841 583.94"><g id="b"><path d="M585.825,583.94H127.015c-11.512,0-20.855-9.343-20.855-20.855s9.343-20.855,20.855-20.855h458.81c11.512,0,20.855,9.343,20.855,20.855s-9.343,20.855-20.855,20.855Z" fill="#f54f29" stroke-width="0"/><path d="M608.449,189.147c-55.741-55.741-126.715-90.728-203.511-101.122v-46.315h55.758c11.512,0,20.855-9.343,20.855-20.855S472.207,0,460.695,0h-208.55c-11.512,0-20.855,9.343-20.855,20.855s9.343,20.855,20.855,20.855h59.262v45.864C136.041,109.764,0,259.887,0,441.175c0,12.38.634,24.792,1.885,36.905,1.318,12.763,12.063,22.457,24.893,22.457h659.285c12.83,0,23.575-9.693,24.892-22.457,1.251-12.113,1.885-24.526,1.885-36.888,0-95.199-37.072-184.709-104.392-252.029v-.017ZM662.655,450.468H50.185c-.1-3.103-.133-6.19-.133-9.293,0-153.259,113.101-280.592,260.22-302.915l-17.885,144.517c-.651,5.239,1.218,10.478,5.039,14.115,3.821,3.637,9.126,5.272,14.332,4.371l24.776-4.254-14.081,71.825c-1.618,8.225,3.12,16.367,11.062,19.036,1.752.584,3.537.868,5.305.868,6.223,0,12.129-3.504,14.999-9.376l65.068-133.472c2.636-5.422,2.152-11.829-1.268-16.801-3.42-4.955-9.243-7.675-15.266-7.124l-14.181,1.318,15.516-84.838c146.569,22.807,259.103,149.872,259.103,302.731,0,3.103-.05,6.206-.134,9.293h0Z" fill="#f54f29" stroke-width="0"/></g></svg>